<?xml version="1.0" standalone="no"?><!DOCTYPE svg PUBLIC "-//W3C//DTD SVG 1.1//EN" "http://www.w3.org/Graphics/SVG/1.1/DTD/svg11.dtd"><svg t="1671010422706" class="icon" viewBox="0 0 1024 1024" version="1.1" xmlns="http://www.w3.org/2000/svg" p-id="3936" xmlns:xlink="http://www.w3.org/1999/xlink" width="200" height="200"><path d="M504.198329 6.503098c107.982124 0 205.725067 43.759556 276.454827 114.492385 70.771715 70.771715 114.531271 168.518751 114.531271 276.492689 0 79.653995-23.812288 153.750426-64.729105 215.517064l-66.467698 9.317185c48.977383-56.559044 79.816701-129.259687 83.449431-209.037503l-156.315849-0.007163c-1.773386 58.729472-13.622225 115.329448-33.842715 166.748435 34.398369 10.937075 67.058144 25.59386 97.11361 43.639829l-2.132565 0.320294c-14.413239 2.005676-28.355758 5.762226-41.707831 11.5705-20.965455-10.549243-43.045289-19.391614-65.912044-26.460598-1.735524 3.709478-3.557005 7.347324-5.411232 11.018939-23.139977 45.413215-53.397034 85.581996-89.454179 117.967526a354.976024 354.976024 0 0 0 39.693968-7.663525l-41.822441 35.89444a83.396219 83.396219 0 0 0-17.814702 21.332821c-8.489331 0.551561-17.020618 0.8299-25.632746 0.8299-107.974961 0-205.720974-43.759556-276.453803-114.531271-26.734844-26.739961-49.644578-57.305033-67.729432-90.835639a544.923788 544.923788 0 0 0 29.658424 1.183963c8.651013 0.11154 17.297933 0.080841 26.029788-0.115634a348.261102 348.261102 0 0 0 33.253292 43.323628c23.024343-14.38254 47.546804-26.696982 73.255274-36.810297 9.202574 8.766647 19.669952 16.271559 31.124819 22.157605-28.871503 9.82986-56.316521 22.430827-81.632042 37.595171 50.632066 46.555222 115.279306 78.120062 186.880921 87.638838-36.01826-32.389623-66.271224-72.550218-89.411201-117.967526l-0.239453-0.393972c12.681808 4.57417 26.226262 7.305368 40.32637 7.898884 21.52111 36.531958 48.179206 68.639149 79.14132 94.506232l0.004093-116.347635a134.569613 134.569613 0 0 0 44.545454-48.456522c31.91481 1.766223 63.347644 6.513331 93.758196 14.057129 19.554319-48.544526 31.000999-102.248551 32.817364-158.093328l-137.000983-0.007164a135.627709 135.627709 0 0 0-34.125147-32.138913l0.004093-142.968893c-36.373346-1.190103-72.234017-6.2002-106.675365-14.846097-18.955686 47.031059-30.290826 98.968861-32.659775 153.037183a134.922653 134.922653 0 0 0-41.981053 36.924907l-146.125786-0.007163a345.044857 345.044857 0 0 0 4.77883 43.725786c-16.233697-1.188056-33.569493-3.553935-49.169764-7.936747a396.829164 396.829164 0 0 1-3.359508-51.578622c0-107.974961 43.759556-205.720974 114.531271-276.492689C298.478379 50.25856 396.224391 6.503098 504.198329 6.503098zM160.963697 381.690403h156.315849c1.777479-58.843059 13.665204-115.514666 34.001327-167.016541-36.292505-11.655434-70.771715-27.486973-102.324275-47.233673-51.619555 57.260007-84.2824 131.986793-87.996995 214.25226l0.004094-0.002046z m110.740952-237.196787c28.432506 17.062573 59.475461 30.844434 92.253939 41.074406 1.85832-3.950977 3.833297-7.902978 5.808275-11.809953 23.102115-45.022313 53.158604-84.793029 88.899548-116.860311-71.644594 9.478866-136.330719 41.03552-186.961762 87.595858z m278.030715-87.596882v0.002047c35.740944 32.069329 65.797434 71.832882 88.860663 116.860311 2.055818 4.028748 4.072751 8.057497 6.000655 12.124107 32.74471-10.149131 63.907391-23.936107 92.498509-40.994587C686.381261 98.08882 621.575409 66.413463 549.735364 56.896734zM759.885198 167.952864h-0.004093c-31.556653 19.62902-66.15252 35.385858-102.64457 46.998313 20.263469 51.418987 32.073422 108.045569 33.884671 166.738202l156.315849 0.00307c-3.710501-82.027038-36.175848-156.557349-87.551857-213.739585zM613.677547 600.641676c-30.290826-7.107871-61.769709-11.254299-93.681448-12.241788l0.004093 133.722317c36.967886-30.889459 67.849159-70.690874 91.071-116.343542 0.909717-1.696638 1.734501-3.39737 2.606355-5.132894v-0.004093z m-93.677355-218.951273h139.527521c-1.816365-55.884686-13.267138-109.592805-32.739593-158.130168-34.553911 8.603941-70.414582 13.5465-106.790998 14.612783l0.00307 143.517385zM394.805069 194.051213c30.251941 7.188712 61.685798 11.422121 93.596514 12.488404l0.004093-133.728457c-36.728433 30.647959-67.416301 70.064612-90.60028 115.2834a270.312955 270.312955 0 0 0-3.000327 5.96484v-0.008187z m125.195123 12.52115c31.950626-0.985442 63.424391-5.167686 93.716241-12.278627a276.046528 276.046528 0 0 0-3.120055-6.2002c-23.182956-45.22595-53.910733-84.63544-90.600279-115.281352l0.004093 133.760179z" fill="#36ab60" p-id="3937"></path><path d="M453.925443 454.359324c-9.993588-9.996658-23.815358-16.190718-39.100452-16.190719-15.284071-0.007163-29.106863 6.2002-39.096358 16.192765-10.031451 9.987449-16.194812 23.813311-16.194812 39.096359 0.004093 15.284071 6.163361 29.106863 16.194812 39.100451 9.992565 9.988472 23.812288 16.189695 39.096358 16.189695 15.285094 0 29.106863-6.198153 39.100452-16.189695 9.992565-9.997682 16.190718-23.816381 16.190718-39.100451 0.004093-15.283048-6.198153-29.104817-16.190718-39.096359v-0.002046zM320.874413 534.922013C224.863925 549.056913 4.452396 566.602486 6.503098 424.700899c0.59454-41.909422 18.798097-85.621905 77.922565-122.863013a428.590478 428.590478 0 0 0-9.556638 64.136611c-32.582004 27.801127-29.782244 85.22691 9.394955 108.448751 57.029764 33.804853 164.372323 23.341568 227.998306 14.060199 1.264804-26.381804 12.480217-50.115298 29.935739-67.612775 18.601623-18.609809 44.272231-30.094352 72.626966-30.094352 28.358828-0.004093 54.029436 11.492729 72.589103 30.094352 18.605716 18.562737 30.094352 44.233345 30.094352 72.589103 0.004093 28.358828-11.489659 54.029436-30.094352 72.589104-18.558644 18.601623-44.229252 30.094352-72.589103 30.094352-28.351665-0.004093-54.025343-11.489659-72.626966-30.094352a102.895279 102.895279 0 0 1-21.327705-31.120726l0.004093-0.00614zM891.119862 692.151673l-35.703081 5.090938a119.891338 119.891338 0 0 1 16.626645 13.942519c5.214758 5.13801 9.912747 10.783579 14.096015 16.827214l4.980421-35.860671z m-317.529232 172.467682l-4.659103-5.295599c-16.310445-18.527945-14.456218-46.797746 4.461606-63.031443l122.630723-105.333813c9.082848-7.775065 18.558644-13.934333 28.786569-18.516688 10.190063-4.624311 21.05039-7.701387 32.938114-9.35914l148.415941-20.820147c20.066994-25.901875 35.980397-50.38852 46.918496-74.003309 11.454867-24.683119 17.498501-48.37875 17.220162-71.878931-0.392949-36.103194-12.556965-70.256993-35.624288-101.022632a429.650622 429.650622 0 0 0-6.988144-75.316209c58.094 48.574202 89.094999 109.198833 89.809266 175.983755 0.355087 30.924252-7.188712 61.25294-21.447432 92.019603-12.989823 27.995555-31.513675 56.358476-54.658768 85.979038l-21.242771 151.452084c-1.658776 11.886701-4.706176 22.750098-9.321277 32.98314-4.621242 10.184946-10.745717 19.665859-18.567854 28.748707l-105.283671 114.76356c-16.309422 18.998665-44.672343 20.660511-63.035536 4.431931l-5.330391-4.663197a48.095295 48.095295 0 0 1-15.600272 2.607379c-26.422737-0.004093-47.909054-21.525203-47.909054-47.904961 0.004093-26.383851 21.525203-47.904961 47.909054-47.904961 26.383851-0.004093 47.904961 21.52111 47.90496 47.904961 0 3.27355-0.35918 6.55631-1.030467 9.753112l3.121078 2.764968 103.357813-112.478523c4.816693-5.607707 8.527194-11.374026 11.33514-17.495431 9.791997-21.721677 10.779486-53.512667 2.012839-75.315186-9.12071-22.674373-27.486973-41.03245-50.157253-50.158276-21.803542-8.727761-53.594532-7.779158-75.316209 2.055818-6.120382 2.757805-11.886701 6.475469-17.494408 11.296255L606.411064 830.212799l2.723013 3.128241a47.639925 47.639925 0 0 1 9.757205-0.987488c26.457529-0.041955 47.904961 21.443339 47.904961 47.866075 0 26.376688-21.563065 47.904961-47.904961 47.90496-26.421713-0.008186-47.908031-21.52418-47.908031-47.90496 0-5.25569 0.867762-10.543103 2.607379-15.600272z" fill="#36ab60" p-id="3938"></path><path d="M414.829084 461.85912c-17.455522 0-31.598609 14.145133-31.598609 31.598609 0.00307 17.451429 14.143087 31.598609 31.594516 31.598609 17.459615-0.008186 31.594516-14.143087 31.594516-31.598609 0.005117-17.459615-14.1349-31.594516-31.590423-31.598609z" fill="#36ab60" p-id="3939"></path></svg>